<?xml version="1.0" encoding="UTF-8"?>
<svg width="800" height="400" viewBox="0 0 800 400" xmlns="http://www.w3.org/2000/svg">
  <!-- Definitions -->
  <defs>
    <!-- Gradients -->
    <linearGradient id="bg-gradient" x1="0%" y1="0%" x2="100%" y2="100%">
      <stop offset="0%" stop-color="#F8F9FA" stop-opacity="0.9" />
      <stop offset="100%" stop-color="#E9ECEF" stop-opacity="0.9" />
    </linearGradient>
    
    <linearGradient id="primary-gradient" x1="0%" y1="0%" x2="100%" y2="100%">
      <stop offset="0%" stop-color="#3B8EA5" />
      <stop offset="100%" stop-color="#2C7A8E" />
    </linearGradient>
    
    <linearGradient id="secondary-gradient" x1="0%" y1="0%" x2="100%" y2="100%">
      <stop offset="0%" stop-color="#EE7674" />
      <stop offset="100%" stop-color="#E84A47" />
    </linearGradient>
    
    <linearGradient id="accent-gradient" x1="0%" y1="0%" x2="100%" y2="100%">
      <stop offset="0%" stop-color="#F2BB05" />
      <stop offset="100%" stop-color="#E0AD00" />
    </linearGradient>
    
    <linearGradient id="dark-gradient" x1="0%" y1="0%" x2="100%" y2="100%">
      <stop offset="0%" stop-color="#1A535C" />
      <stop offset="100%" stop-color="#0F3035" />
    </linearGradient>
    
    <!-- Filters -->
    <filter id="shadow" x="-20%" y="-20%" width="140%" height="140%">
      <feDropShadow dx="2" dy="2" stdDeviation="3" flood-opacity="0.2" />
    </filter>
    
    <filter id="glow" x="-20%" y="-20%" width="140%" height="140%">
      <feGaussianBlur stdDeviation="4" result="blur" />
      <feComposite in="SourceGraphic" in2="blur" operator="over" />
    </filter>
    
    <!-- Patterns -->
    <pattern id="dots-pattern" x="0" y="0" width="20" height="20" patternUnits="userSpaceOnUse">
      <circle cx="3" cy="3" r="1.5" fill="#3B8EA5" opacity="0.2" />
    </pattern>
    
    <pattern id="grid-pattern" x="0" y="0" width="20" height="20" patternUnits="userSpaceOnUse">
      <path d="M 20 0 L 0 0 0 20" fill="none" stroke="#EE7674" stroke-width="0.5" opacity="0.1" />
    </pattern>
  </defs>
  
  <!-- Background with soft gradient and patterns -->
  <rect x="0" y="0" width="800" height="400" rx="20" ry="20" fill="url(#bg-gradient)" />
  <rect x="0" y="0" width="800" height="400" rx="20" ry="20" fill="url(#dots-pattern)" />
  <rect x="0" y="0" width="800" height="400" rx="20" ry="20" fill="url(#grid-pattern)" />
  
  <!-- Central hexagon framework -->
  <g transform="translate(400, 200)">
    <!-- Central circle -->
    <circle cx="0" cy="0" r="60" fill="url(#dark-gradient)" filter="url(#shadow)" />
    
    <!-- Central text -->
    <text x="0" y="-15" text-anchor="middle" font-family="'Poppins', sans-serif" font-size="18" font-weight="600" fill="#FFFFFF">Teaching</text>
    <text x="0" y="15" text-anchor="middle" font-family="'Poppins', sans-serif" font-size="18" font-weight="600" fill="#FFFFFF">Philosophy</text>
    
    <!-- Hexagonal framework -->
    <path d="M 0,-140 L 121,-70 L 121,70 L 0,140 L -121,70 L -121,-70 Z" fill="none" stroke="#3B8EA5" stroke-width="1.5" stroke-dasharray="8 4" opacity="0.6" />
    
    <!-- Connectors to elements -->
    <line x1="-90" y1="-50" x2="-200" y2="-90" stroke="#3B8EA5" stroke-width="2" stroke-dasharray="1 3" opacity="0.7" />
    <line x1="90" y1="-50" x2="200" y2="-90" stroke="#EE7674" stroke-width="2" stroke-dasharray="1 3" opacity="0.7" />
    <line x1="0" y1="-60" x2="0" y2="-150" stroke="#F2BB05" stroke-width="2" stroke-dasharray="1 3" opacity="0.7" />
  </g>
  
  <!-- Hands-on Learning Element -->
  <g transform="translate(200, 110)">
    <circle cx="0" cy="0" r="50" fill="url(#primary-gradient)" filter="url(#shadow)" />
    
    <!-- Lightbulb icon -->
    <g transform="translate(0, -5) scale(0.8)">
      <path d="M0,-30 C-15,-30 -27,-15 -27,0 C-27,15 -20,25 -13,30 L-8,30 L-8,35 C-8,38 -4,40 0,40 C4,40 8,38 8,35 L8,30 L13,30 C20,25 27,15 27,0 C27,-15 15,-30 0,-30 Z" 
            fill="#FFFFFF" opacity="0.95" />
      <path d="M-5,30 L5,30 L5,35 C5,36 3,37 0,37 C-3,37 -5,36 -5,35 Z" fill="#3B8EA5" opacity="0.8" />
      <circle cx="0" cy="-5" r="12" fill="#FFEB99" opacity="0.4" filter="url(#glow)" />
    </g>
    
    <!-- Text label -->
    <text x="0" y="65" text-anchor="middle" font-family="'Poppins', sans-serif" font-size="16" font-weight="500" fill="#1A202C">
      Hands-on Learning
    </text>
    
    <!-- Small decoration elements -->
    <circle cx="-30" cy="-30" r="4" fill="#FFFFFF" opacity="0.6" />
    <circle cx="35" cy="15" r="3" fill="#FFFFFF" opacity="0.6" />
    <circle cx="-20" cy="25" r="2" fill="#FFFFFF" opacity="0.6" />
  </g>
  
  <!-- Critical Thinking Element -->
  <g transform="translate(400, 50)">
    <circle cx="0" cy="0" r="50" fill="url(#accent-gradient)" filter="url(#shadow)" />
    
    <!-- Brain icon -->
    <g transform="translate(0, 0) scale(0.8)">
      <path d="M-25,-5 C-25,-20 -15,-30 0,-30 S25,-20 25,-5 C30,-5 35,0 35,10 C35,20 30,25 20,25 L-20,25 C-30,25 -35,20 -35,10 C-35,0 -30,-5 -25,-5 Z" 
            fill="#FFFFFF" opacity="0.95" />
      <!-- Brain details -->
      <path d="M0,-20 C-8,-20 -15,-15 -15,-5 M0,-20 C8,-20 15,-15 15,-5" fill="none" stroke="#F2BB05" stroke-width="2" opacity="0.8" />
      <path d="M-15,-5 C-20,-5 -22,0 -22,5 M15,-5 C20,-5 22,0 22,5" fill="none" stroke="#F2BB05" stroke-width="2" opacity="0.8" />
      <path d="M-22,5 C-22,10 -20,15 -15,18 M22,5 C22,10 20,15 15,18" fill="none" stroke="#F2BB05" stroke-width="2" opacity="0.8" />
      <path d="M-15,18 C-8,22 0,22 0,22 M15,18 C8,22 0,22 0,22" fill="none" stroke="#F2BB05" stroke-width="2" opacity="0.8" />
    </g>
    
    <!-- Text label -->
    <text x="0" y="65" text-anchor="middle" font-family="'Poppins', sans-serif" font-size="16" font-weight="500" fill="#1A202C">
      Critical Thinking
    </text>
    
    <!-- Small decoration elements -->
    <circle cx="-35" cy="-10" r="3" fill="#FFFFFF" opacity="0.6" />
    <circle cx="35" cy="-15" r="2" fill="#FFFFFF" opacity="0.6" />
    <circle cx="25" cy="25" r="4" fill="#FFFFFF" opacity="0.6" />
  </g>
  
  <!-- Real-world Connections Element -->
  <g transform="translate(600, 110)">
    <circle cx="0" cy="0" r="50" fill="url(#secondary-gradient)" filter="url(#shadow)" />
    
    <!-- Globe icon -->
    <g transform="translate(0, 0) scale(0.8)">
      <circle cx="0" cy="0" r="30" fill="#FFFFFF" opacity="0.95" />
      <!-- Globe details -->
      <ellipse cx="0" cy="0" rx="30" ry="15" fill="none" stroke="#EE7674" stroke-width="2" opacity="0.8" />
      <circle cx="0" cy="0" r="30" fill="none" stroke="#EE7674" stroke-width="2" opacity="0.8" />
      <line x1="-30" y1="0" x2="30" y2="0" stroke="#EE7674" stroke-width="2" opacity="0.8" />
      <line x1="0" y1="-30" x2="0" y2="30" stroke="#EE7674" stroke-width="2" opacity="0.8" />
      
      <!-- Continents suggestion -->
      <path d="M-20,-5 C-15,-10 -5,-8 0,-15 S10,-5 15,-10 S25,0 20,10 S5,15 0,10 S-15,15 -20,5 Z" fill="#EE7674" opacity="0.4" />
      <path d="M-5,0 C0,5 10,0 5,10 S-5,15 -10,10 S-5,0 -5,0 Z" fill="#EE7674" opacity="0.4" />
    </g>
    
    <!-- Text label -->
    <text x="0" y="65" text-anchor="middle" font-family="'Poppins', sans-serif" font-size="16" font-weight="500" fill="#1A202C">
      Real-world Connections
    </text>
    
    <!-- Small decoration elements -->
    <circle cx="-30" cy="20" r="3" fill="#FFFFFF" opacity="0.6" />
    <circle cx="25" cy="-25" r="4" fill="#FFFFFF" opacity="0.6" />
    <circle cx="10" cy="30" r="2" fill="#FFFFFF" opacity="0.6" />
  </g>
  
  <!-- Decorative elements -->
  <g class="decorative-elements">
    <!-- Subtle science-related icons -->
    <g transform="translate(100, 300) rotate(-15)">
      <path d="M0,0 L10,0 L13,20 L15,20 L15,30 L-5,30 L-5,20 L-3,20 Z" fill="#3B8EA5" opacity="0.3" />
      <rect x="3" y="5" width="4" height="15" fill="#FFFFFF" opacity="0.5" />
    </g>
    
    <g transform="translate(700, 300) rotate(15)">
      <circle cx="0" cy="0" r="12" fill="#EE7674" opacity="0.3" />
      <circle cx="0" cy="0" r="8" fill="#FFFFFF" opacity="0.1" />
      <circle cx="8" cy="-8" r="4" fill="#EE7674" opacity="0.3" />
      <circle cx="-8" cy="8" r="4" fill="#EE7674" opacity="0.3" />
    </g>
    
    <g transform="translate(150, 350)">
      <rect x="-10" y="-10" width="20" height="20" fill="#F2BB05" opacity="0.3" />
      <rect x="-6" y="-6" width="12" height="12" fill="#FFFFFF" opacity="0.2" />
    </g>
    
    <g transform="translate(650, 350)">
      <path d="M0,-15 L15,10 L-15,10 Z" fill="#3B8EA5" opacity="0.3" />
      <path d="M0,-5 L5,5 L-5,5 Z" fill="#FFFFFF" opacity="0.2" />
    </g>
    
    <!-- Connecting dots and lines -->
    <g opacity="0.4">
      <circle cx="150" cy="200" r="3" fill="#3B8EA5" />
      <circle cx="250" cy="220" r="2" fill="#3B8EA5" />
      <line x1="150" y1="200" x2="250" y2="220" stroke="#3B8EA5" stroke-width="1" stroke-dasharray="3 2" />
      
      <circle cx="650" cy="200" r="3" fill="#EE7674" />
      <circle cx="550" cy="220" r="2" fill="#EE7674" />
      <line x1="650" y1="200" x2="550" y2="220" stroke="#EE7674" stroke-width="1" stroke-dasharray="3 2" />
      
      <circle cx="400" cy="300" r="3" fill="#F2BB05" />
      <circle cx="400" cy="250" r="2" fill="#F2BB05" />
      <line x1="400" y1="300" x2="400" y2="250" stroke="#F2BB05" stroke-width="1" stroke-dasharray="3 2" />
    </g>
  </g>
  
  <!-- Dark mode overlay - visible only in dark mode via CSS -->
  <g class="dark-mode-only" opacity="0">
    <rect x="0" y="0" width="800" height="400" rx="20" ry="20" fill="#1A202C" />
    <!-- Additional dark mode elements -->
    <circle cx="400" cy="200" r="180" fill="url(#dark-gradient)" opacity="0.1" />
    <path d="M0,200 Q 100,150 200,200 T 400,150 T 600,200 T 800,180" stroke="#4A5568" stroke-width="1" fill="none" opacity="0.2" />
    <path d="M0,220 Q 100,270 200,220 T 400,270 T 600,220 T 800,240" stroke="#4A5568" stroke-width="1" fill="none" opacity="0.2" />
  </g>
</svg> 